<?xml version="1.0" standalone="no"?>
<!DOCTYPE svg PUBLIC "-//W3C//DTD SVG 20010904//EN"
 "http://www.w3.org/TR/2001/REC-SVG-20010904/DTD/svg10.dtd">
<svg version="1.0" xmlns="http://www.w3.org/2000/svg"
 width="700.000000pt" height="700.000000pt" viewBox="0 0 700.000000 700.000000"
 preserveAspectRatio="xMidYMid meet">
<metadata>
Created by potrace 1.14, written by Peter Selinger 2001-2017
</metadata>
<g transform="translate(0.000000,700.000000) scale(0.100000,-0.100000)"
fill="#000000" stroke="none">
<path d="M0 3500 l0 -3500 3500 0 3500 0 0 3500 0 3500 -3500 0 -3500 0 0
-3500z m3795 2465 c170 -45 284 -170 316 -345 50 -283 -189 -555 -455 -519
-170 23 -318 170 -346 344 -29 176 8 304 120 416 102 102 231 138 365 104z
m-964 -678 c27 -9 110 -63 219 -143 96 -71 241 -178 321 -236 185 -136 245
-189 259 -234 12 -37 7 -87 -13 -131 -6 -14 -148 -208 -314 -432 -324 -434
-342 -463 -330 -555 3 -23 30 -156 61 -296 30 -140 123 -581 205 -980 82 -399
168 -809 190 -912 23 -103 41 -203 41 -221 0 -60 -45 -77 -78 -29 -32 45 -532
1193 -708 1624 -35 86 -64 165 -64 176 0 46 -56 55 -76 12 -41 -84 -100 -518
-144 -1060 -15 -189 -46 -449 -72 -618 l-23 -142 -31 0 c-30 0 -31 1 -42 68
-177 1076 -420 2445 -433 2450 -19 7 -9 165 14 232 24 70 602 1011 767 1249
97 139 124 168 166 181 40 11 36 12 85 -3z m1446 -679 c55 -51 69 -127 33
-185 -49 -81 -154 -82 -210 -2 -33 45 -25 127 16 170 16 17 38 35 49 40 31 13
85 2 112 -23z m778 -1350 c-29 -130 -111 -682 -219 -1465 -53 -380 -96 -694
-96 -697 0 -3 -211 -6 -469 -6 l-469 0 -6 28 c-16 75 -38 256 -66 537 -17 171
-44 416 -60 545 -16 129 -34 282 -40 340 -10 93 -73 622 -84 708 l-5 32 760 0
759 0 -5 -22z"/>
<path d="M3625 3158 c5 -23 35 -272 35 -295 0 -10 40 -13 166 -13 l167 0 -6
148 c-3 81 -8 155 -12 165 -6 15 -25 17 -181 17 l-174 0 5 -22z"/>
<path d="M4567 3173 c-4 -3 -7 -78 -7 -165 l0 -158 154 0 c139 0 155 2 160 18
14 45 36 201 36 253 l0 59 -168 0 c-93 0 -172 -3 -175 -7z"/>
<path d="M4054 3033 c3 -71 9 -140 12 -155 l6 -28 209 0 210 0 -3 153 -3 152
-219 3 -219 2 7 -127z"/>
<path d="M3690 2759 c0 -19 30 -263 36 -291 l6 -28 140 0 141 0 -5 153 c-3 85
-8 159 -12 165 -10 16 -306 17 -306 1z"/>
<path d="M4074 2643 c3 -71 9 -145 12 -165 l7 -38 183 0 184 0 0 165 0 165
-197 0 -196 0 7 -127z"/>
<path d="M4566 2739 c-3 -17 -6 -70 -7 -118 0 -47 -4 -107 -8 -133 l-8 -48
142 0 143 0 6 33 c3 17 10 73 16 122 5 50 12 109 16 133 l5 42 -149 0 -149 0
-7 -31z"/>
<path d="M3734 2303 c3 -21 10 -78 16 -128 6 -49 13 -107 16 -127 l6 -38 120
0 120 0 -4 148 c-3 81 -9 155 -13 165 -6 15 -23 17 -137 17 l-130 0 6 -37z"/>
<path d="M4094 2329 c-6 -11 1 -160 12 -266 l6 -53 163 0 162 0 7 113 c4 61
10 136 13 165 l6 52 -181 0 c-121 0 -183 -4 -188 -11z"/>
<path d="M4545 2328 c-2 -7 -6 -74 -8 -148 -3 -74 -8 -143 -12 -152 -7 -17 3
-18 119 -18 94 0 126 3 126 13 0 23 30 272 35 295 5 22 5 22 -125 22 -96 0
-132 -3 -135 -12z"/>
<path d="M4122 1777 c3 -85 8 -159 12 -165 5 -8 50 -12 145 -12 l138 0 7 128
c3 70 9 144 12 165 l7 37 -163 0 -163 0 5 -153z"/>
<path d="M3775 1888 c5 -23 35 -272 35 -295 0 -10 28 -13 104 -13 l104 0 7 87
c8 86 2 214 -10 233 -4 6 -57 10 -126 10 -119 0 -119 0 -114 -22z"/>
<path d="M4517 1768 c-3 -79 -9 -153 -13 -165 -6 -23 -5 -23 94 -23 l100 0 6
28 c6 28 36 272 36 291 0 7 -37 11 -109 11 l-108 0 -6 -142z"/>
<path d="M3840 1489 c0 -19 30 -263 36 -291 l6 -28 90 0 91 0 -6 118 c-4 64
-10 138 -13 165 l-7 47 -98 0 c-65 0 -99 -4 -99 -11z"/>
<path d="M4142 1353 c3 -82 9 -156 13 -165 6 -16 22 -18 125 -18 l117 0 7 138
c4 75 9 149 12 165 l6 27 -142 0 -143 0 5 -147z"/>
<path d="M4497 1358 c-4 -79 -9 -153 -13 -165 -6 -23 -5 -23 84 -23 l91 0 5
43 c4 23 11 83 16 132 6 50 13 105 16 123 l6 32 -99 0 -100 0 -6 -142z"/>
</g>
</svg>
